<svg width="10" height="10" viewBox="0 0 10 10" fill="none" xmlns="http://www.w3.org/2000/svg">
<circle cx="5" cy="5" r="4.5" fill="#C83434" stroke="white"/>
<path d="M3.7625 5.3515L4.646 6.2355L4.29275 6.589L4.6465 6.94275L4.293 7.29625L3.67425 6.6775L2.967 7.38475L2.6135 7.03125L3.32075 6.32375L2.702 5.70525L3.0555 5.35175L3.409 5.705L3.76225 5.3515H3.7625ZM2.75 2.75L3.6365 2.75075L6.59075 5.70525L6.9445 5.35175L7.298 5.70525L6.6795 6.324L7.3865 7.03125L7.033 7.38475L6.32575 6.6775L5.707 7.29625L5.3535 6.94275L5.707 6.589L2.75075 3.63275L2.75 2.75ZM6.36425 2.75L7.25 2.75075L7.2505 3.6315L6.23725 4.6445L5.35325 3.76075L6.36425 2.75Z" fill="white"/>
</svg>
