<svg width="10" height="10" viewBox="0 0 10 10" fill="none" xmlns="http://www.w3.org/2000/svg">
<circle cx="5" cy="5" r="4.5" fill="#7B3B27" stroke="white"/>
<path d="M5 4.8V7.2M5 4.8C5 4.23995 5 3.95992 4.87889 3.74601C4.77236 3.55785 4.60239 3.40487 4.39332 3.30899C4.15564 3.2 3.8445 3.2 3.22222 3.2H2.94444C2.78887 3.2 2.71109 3.2 2.65167 3.22725C2.5994 3.25122 2.55691 3.28946 2.53027 3.3365C2.5 3.38998 2.5 3.45999 2.5 3.6V6.3C2.5 6.44003 2.5 6.51003 2.53027 6.5635C2.55691 6.61055 2.5994 6.64878 2.65167 6.67275C2.71109 6.7 2.78887 6.7 2.94444 6.7H3.76297C3.91302 6.7 3.98804 6.7 4.06059 6.71165C4.12499 6.72198 4.18781 6.73908 4.24775 6.76265C4.31529 6.78918 4.37771 6.82663 4.50256 6.90155L5 7.2M5 4.8C5 4.23995 5 3.95992 5.12111 3.74601C5.22764 3.55785 5.39761 3.40487 5.60667 3.30899C5.84436 3.2 6.1555 3.2 6.77778 3.2H7.05556C7.21114 3.2 7.28892 3.2 7.34833 3.22725C7.40061 3.25122 7.44308 3.28946 7.46972 3.3365C7.5 3.38998 7.5 3.45999 7.5 3.6V6.3C7.5 6.44003 7.5 6.51003 7.46972 6.5635C7.44308 6.61055 7.40061 6.64878 7.34833 6.67275C7.28892 6.7 7.21114 6.7 7.05556 6.7H6.23703C6.08697 6.7 6.01194 6.7 5.93942 6.71165C5.875 6.72198 5.81219 6.73908 5.75225 6.76265C5.68472 6.78918 5.62228 6.82663 5.49744 6.90155L5 7.2" stroke="white" stroke-width="0.75" stroke-linecap="round" stroke-linejoin="round"/>
</svg>
