<svg width="10" height="10" viewBox="0 0 10 10" fill="none" xmlns="http://www.w3.org/2000/svg">
<circle cx="5" cy="5" r="4.5" fill="#FFDA17" stroke="white"/>
<path d="M4.79342 2.77012C4.85887 2.61615 4.89161 2.53916 4.93718 2.51545C4.97676 2.49485 5.02324 2.49485 5.06282 2.51545C5.1084 2.53916 5.14114 2.61615 5.20659 2.77012L5.72793 3.99657C5.7473 4.04209 5.75697 4.06485 5.77195 4.08228C5.78518 4.0977 5.80138 4.11004 5.81945 4.11848C5.83989 4.12803 5.86353 4.13064 5.9108 4.13587L7.18427 4.27682C7.34415 4.29451 7.42407 4.30336 7.45967 4.34148C7.49057 4.37459 7.50493 4.42096 7.49849 4.4668C7.49108 4.51957 7.43137 4.57599 7.31195 4.68885L6.36067 5.58779C6.32538 5.62115 6.30771 5.63784 6.29654 5.65814C6.28665 5.67614 6.28046 5.69609 6.27839 5.71673C6.27605 5.74006 6.28097 5.76443 6.29083 5.81319L6.55654 7.12674C6.5899 7.29166 6.60658 7.37411 6.583 7.42136C6.5625 7.46245 6.5249 7.49109 6.48133 7.49883C6.43118 7.50772 6.36154 7.46563 6.22227 7.3814L5.11301 6.7105C5.07184 6.6856 5.05126 6.67318 5.02938 6.66829C5.01001 6.66399 4.98999 6.66399 4.97063 6.66829C4.94875 6.67318 4.92816 6.6856 4.887 6.7105L3.77774 7.3814C3.63847 7.46563 3.56884 7.50772 3.51868 7.49883C3.47511 7.49109 3.4375 7.46245 3.41702 7.42136C3.39344 7.37411 3.41012 7.29166 3.44348 7.12674L3.70917 5.81319C3.71903 5.76443 3.72396 5.74006 3.72162 5.71673C3.71955 5.69609 3.71337 5.67614 3.70347 5.65814C3.69229 5.63784 3.67464 5.62115 3.63933 5.58779L2.68808 4.68885C2.56865 4.57599 2.50894 4.51957 2.50151 4.4668C2.49507 4.42096 2.50943 4.37459 2.54035 4.34148C2.57593 4.30336 2.65587 4.29451 2.81576 4.27682L4.08922 4.13587C4.13649 4.13064 4.16012 4.12803 4.18055 4.11848C4.19863 4.11004 4.21482 4.0977 4.22807 4.08228C4.24304 4.06485 4.25272 4.04209 4.27207 3.99657L4.79342 2.77012Z" stroke="white" stroke-width="0.75" stroke-linecap="round" stroke-linejoin="round"/>
</svg>
