<svg width="31" height="38" viewBox="0 0 31 38" fill="none" xmlns="http://www.w3.org/2000/svg">
<g filter="url(#filter0_d_1_27)">
<path d="M27 11.8938C27 22.8199 15.5 30 15.5 30C15.5 30 4 22.8199 4 11.8938C4 5.85952 9.14873 0 15.5 0C21.8513 0 27 5.85952 27 11.8938Z" fill="#C83434"/>
<path d="M24.5 11.8938C24.5 16.465 22.0833 20.4127 19.4006 23.362C18.0797 24.8142 16.7526 25.9587 15.756 26.7387C15.6678 26.8077 15.5824 26.8737 15.5 26.9368C15.4176 26.8737 15.3322 26.8077 15.244 26.7387C14.2474 25.9587 12.9203 24.8142 11.5994 23.362C8.91671 20.4127 6.5 16.465 6.5 11.8938C6.5 7.08652 10.6783 2.5 15.5 2.5C20.3217 2.5 24.5 7.08652 24.5 11.8938Z" stroke="white" stroke-width="5"/>
</g>
<defs>
<filter id="filter0_d_1_27" x="0" y="0" width="31" height="38" filterUnits="userSpaceOnUse" color-interpolation-filters="sRGB">
<feFlood flood-opacity="0" result="BackgroundImageFix"/>
<feColorMatrix in="SourceAlpha" type="matrix" values="0 0 0 0 0 0 0 0 0 0 0 0 0 0 0 0 0 0 127 0" result="hardAlpha"/>
<feOffset dy="4"/>
<feGaussianBlur stdDeviation="2"/>
<feComposite in2="hardAlpha" operator="out"/>
<feColorMatrix type="matrix" values="0 0 0 0 0 0 0 0 0 0 0 0 0 0 0 0 0 0 0.25 0"/>
<feBlend mode="normal" in2="BackgroundImageFix" result="effect1_dropShadow_1_27"/>
<feBlend mode="normal" in="SourceGraphic" in2="effect1_dropShadow_1_27" result="shape"/>
</filter>
</defs>
</svg>
